<mxfile host="app.diagrams.net" modified="2022-12-28T13:28:48.134Z" agent="5.0 (Macintosh; Intel Mac OS X 10_15_7) AppleWebKit/605.1.15 (KHTML, like Gecko) Version/15.6.1 Safari/605.1.15" etag="ohsQYIRHS6Mp51dxZTMj" version="20.6.0" type="github">
  <diagram id="5z0eC1mWPkH6LliAhnsI" name="Page-1">
    <mxGraphModel dx="1532" dy="535" grid="1" gridSize="10" guides="1" tooltips="1" connect="1" arrows="1" fold="1" page="1" pageScale="1" pageWidth="827" pageHeight="1169" math="0" shadow="0">
      <root>
        <mxCell id="0" />
        <mxCell id="1" parent="0" />
        <mxCell id="WuasNJQeEEEQrb4oNhzZ-1" value="Communication Service" style="rounded=1;whiteSpace=wrap;html=1;fillColor=#e1d5e7;strokeColor=#9673a6;" parent="1" vertex="1">
          <mxGeometry x="300" y="64" width="120" height="60" as="geometry" />
        </mxCell>
        <mxCell id="WuasNJQeEEEQrb4oNhzZ-2" value="&lt;font color=&quot;#000000&quot;&gt;Validate the request is&amp;nbsp;&lt;span style=&quot;caret-color: rgb(0, 0, 0);&quot;&gt;genuine and proper request&lt;br&gt;&lt;/span&gt;&lt;/font&gt;" style="rounded=0;whiteSpace=wrap;html=1;fillColor=#dae8fc;strokeColor=#6c8ebf;" parent="1" vertex="1">
          <mxGeometry x="300" y="174" width="120" height="60" as="geometry" />
        </mxCell>
        <mxCell id="WuasNJQeEEEQrb4oNhzZ-3" value="&lt;div&gt;service_name != null&lt;/div&gt;&lt;div&gt;source_ip != null&amp;nbsp;&lt;/div&gt;&lt;div&gt;request_id != null&amp;nbsp;&lt;/div&gt;&lt;div&gt;communication_from_id != null&amp;nbsp;&lt;/div&gt;&lt;div&gt;communication_to_id != null&amp;nbsp;&lt;/div&gt;&lt;div&gt;message_details != null&amp;nbsp;&lt;/div&gt;&lt;div&gt;target_app_type != null&amp;nbsp;&lt;/div&gt;" style="text;html=1;strokeColor=none;fillColor=none;align=left;verticalAlign=middle;whiteSpace=wrap;rounded=0;fontColor=#000000;" parent="1" vertex="1">
          <mxGeometry x="425" y="130" width="210" height="140" as="geometry" />
        </mxCell>
        <mxCell id="WuasNJQeEEEQrb4oNhzZ-4" value="" style="edgeStyle=orthogonalEdgeStyle;rounded=0;orthogonalLoop=1;jettySize=auto;html=1;fontColor=#000000;" parent="1" source="WuasNJQeEEEQrb4oNhzZ-5" target="WuasNJQeEEEQrb4oNhzZ-6" edge="1">
          <mxGeometry relative="1" as="geometry" />
        </mxCell>
        <mxCell id="WuasNJQeEEEQrb4oNhzZ-5" value="Valid&lt;br&gt;&amp;nbsp;request" style="rhombus;whiteSpace=wrap;html=1;fillColor=#ffe6cc;strokeColor=#d79b00;" parent="1" vertex="1">
          <mxGeometry x="320" y="280" width="80" height="80" as="geometry" />
        </mxCell>
        <mxCell id="WuasNJQeEEEQrb4oNhzZ-6" value="Save request with status INITIATED" style="shape=cylinder3;whiteSpace=wrap;html=1;boundedLbl=1;backgroundOutline=1;size=15;fillColor=#d5e8d4;strokeColor=#82b366;" parent="1" vertex="1">
          <mxGeometry x="460" y="280" width="79" height="80" as="geometry" />
        </mxCell>
        <mxCell id="WuasNJQeEEEQrb4oNhzZ-7" value="Save request with status ABORTED" style="shape=cylinder3;whiteSpace=wrap;html=1;boundedLbl=1;backgroundOutline=1;size=15;fillColor=#d5e8d4;strokeColor=#82b366;" parent="1" vertex="1">
          <mxGeometry x="182.75" y="282" width="79" height="80" as="geometry" />
        </mxCell>
        <mxCell id="WuasNJQeEEEQrb4oNhzZ-8" value="Return error base response&lt;span style=&quot;caret-color: rgba(0, 0, 0, 0); color: rgba(0, 0, 0, 0); font-family: monospace; font-size: 0px; text-align: start;&quot;&gt;%3CmxGraphModel%3E%3Croot%3E%3CmxCell%20id%3D%220%22%2F%3E%3CmxCell%20id%3D%221%22%20parent%3D%220%22%2F%3E%3CmxCell%20id%3D%222%22%20value%3D%22Save%20request%20with%20status%20initiated%22%20style%3D%22shape%3Dcylinder3%3BwhiteSpace%3Dwrap%3Bhtml%3D1%3BboundedLbl%3D1%3BbackgroundOutline%3D1%3Bsize%3D15%3BfontColor%3D%23000000%3B%22%20vertex%3D%221%22%20parent%3D%221%22%3E%3CmxGeometry%20x%3D%22491%22%20y%3D%22280%22%20width%3D%2279%22%20height%3D%2280%22%20as%3D%22geometry%22%2F%3E%3C%2FmxCell%3E%3C%2Froot%3E%3C%2FmxGraphModel%3E&lt;/span&gt;" style="rounded=1;whiteSpace=wrap;html=1;fillColor=#e1d5e7;strokeColor=#9673a6;" parent="1" vertex="1">
          <mxGeometry y="292" width="120" height="60" as="geometry" />
        </mxCell>
        <mxCell id="WuasNJQeEEEQrb4oNhzZ-9" value="Return success base response&lt;span style=&quot;caret-color: rgba(0, 0, 0, 0); color: rgba(0, 0, 0, 0); font-family: monospace; font-size: 0px; text-align: start;&quot;&gt;%3CmxGraphModel%3E%3Croot%3E%3CmxCell%20id%3D%220%22%2F%3E%3CmxCell%20id%3D%221%22%20parent%3D%220%22%2F%3E%3CmxCell%20id%3D%222%22%20value%3D%22Save%20request%20with%20status%20initiated%22%20style%3D%22shape%3Dcylinder3%3BwhiteSpace%3Dwrap%3Bhtml%3D1%3BboundedLbl%3D1%3BbackgroundOutline%3D1%3Bsize%3D15%3BfontColor%3D%23000000%3B%22%20vertex%3D%221%22%20parent%3D%221%22%3E%3CmxGeometry%20x%3D%22491%22%20y%3D%22280%22%20width%3D%2279%22%20height%3D%2280%22%20as%3D%22geometry%22%2F%3E%3C%2FmxCell%3E%3C%2Froot%3E%3C%2FmxGraphModel%3E&lt;/span&gt;" style="rounded=1;whiteSpace=wrap;html=1;fillColor=#e1d5e7;strokeColor=#9673a6;" parent="1" vertex="1">
          <mxGeometry x="600" y="290" width="120" height="60" as="geometry" />
        </mxCell>
        <mxCell id="WuasNJQeEEEQrb4oNhzZ-10" value="&lt;div style=&quot;text-align: start; background-color: rgb(255, 255, 254); line-height: 18px;&quot;&gt;&lt;div&gt;{&lt;/div&gt;&lt;div&gt;    &lt;span style=&quot;color: rgb(163, 21, 21);&quot;&gt;&quot;es&quot;&lt;/span&gt;: &lt;span style=&quot;color: rgb(9, 134, 88);&quot;&gt;0&lt;/span&gt;,&lt;/div&gt;&lt;div&gt;    &lt;span style=&quot;color: rgb(163, 21, 21);&quot;&gt;&quot;message&quot;&lt;/span&gt;: &lt;span style=&quot;color: rgb(4, 81, 165);&quot;&gt;&quot;Success&quot;&lt;/span&gt;,&lt;/div&gt;&lt;div&gt;    &lt;span style=&quot;color: rgb(163, 21, 21);&quot;&gt;&quot;time&quot;&lt;/span&gt;: &lt;span style=&quot;color: rgb(9, 134, 88);&quot;&gt;1671521069487&lt;/span&gt;,&lt;/div&gt;&lt;div&gt;    &lt;span style=&quot;color: rgb(163, 21, 21);&quot;&gt;&quot;status_code&quot;&lt;/span&gt;: &lt;span style=&quot;color: rgb(9, 134, 88);&quot;&gt;200&lt;/span&gt;,&lt;/div&gt;&lt;div&gt;    &lt;span style=&quot;color: rgb(163, 21, 21);&quot;&gt;&quot;reference_id&quot;&lt;/span&gt;: &lt;span style=&quot;color: rgb(4, 81, 165);&quot;&gt;&quot;6757607&quot;&lt;/span&gt;&lt;/div&gt;&lt;div&gt;}&lt;/div&gt;&lt;/div&gt;" style="text;html=1;strokeColor=none;fillColor=none;align=center;verticalAlign=middle;whiteSpace=wrap;rounded=0;fontColor=#000000;" parent="1" vertex="1">
          <mxGeometry x="710" y="262" width="170" height="120" as="geometry" />
        </mxCell>
        <mxCell id="WuasNJQeEEEQrb4oNhzZ-11" value="&lt;div style=&quot;text-align: start; background-color: rgb(255, 255, 254); line-height: 18px;&quot;&gt;&lt;div&gt;{&lt;/div&gt;&lt;div&gt;    &lt;span style=&quot;color: rgb(163, 21, 21);&quot;&gt;&quot;es&quot;&lt;/span&gt;: &lt;span style=&quot;color: rgb(9, 134, 88);&quot;&gt;0&lt;/span&gt;,&lt;/div&gt;&lt;div&gt;    &lt;span style=&quot;color: rgb(163, 21, 21);&quot;&gt;&quot;message&quot;&lt;/span&gt;: &lt;span style=&quot;color: rgb(4, 81, 165);&quot;&gt;&quot;&lt;/span&gt;&lt;span style=&quot;caret-color: rgb(4, 81, 165); color: rgb(4, 81, 165);&quot;&gt;Invalid details&lt;/span&gt;&lt;span style=&quot;color: rgb(4, 81, 165);&quot;&gt;&quot;&lt;/span&gt;,&lt;/div&gt;&lt;div&gt;    &lt;span style=&quot;color: rgb(163, 21, 21);&quot;&gt;&quot;time&quot;&lt;/span&gt;: &lt;span style=&quot;color: rgb(9, 134, 88);&quot;&gt;1671521069487&lt;/span&gt;,&lt;/div&gt;&lt;div&gt;    &lt;span style=&quot;color: rgb(163, 21, 21);&quot;&gt;&quot;status_code&quot;&lt;/span&gt;: &lt;span style=&quot;color: rgb(9, 134, 88);&quot;&gt;200&lt;/span&gt;,&lt;/div&gt;&lt;div&gt;    &lt;span style=&quot;color: rgb(163, 21, 21);&quot;&gt;&quot;reference_id&quot;&lt;/span&gt;: &lt;span style=&quot;color: rgb(4, 81, 165);&quot;&gt;&quot;6757607&quot;&lt;/span&gt;&lt;/div&gt;&lt;div&gt;}&lt;/div&gt;&lt;/div&gt;" style="text;html=1;strokeColor=none;fillColor=none;align=center;verticalAlign=middle;whiteSpace=wrap;rounded=0;fontColor=#000000;" parent="1" vertex="1">
          <mxGeometry x="-160" y="260" width="170" height="120" as="geometry" />
        </mxCell>
        <mxCell id="WuasNJQeEEEQrb4oNhzZ-12" value="Collection: &lt;font color=&quot;#ea6b66&quot;&gt;central_communication_request&lt;/font&gt;&lt;br&gt;Operation: &lt;font color=&quot;#ea6b66&quot;&gt;Write&lt;/font&gt;" style="text;html=1;strokeColor=none;fillColor=none;align=left;verticalAlign=middle;whiteSpace=wrap;rounded=0;fontColor=#000000;" parent="1" vertex="1">
          <mxGeometry x="100" y="362" width="250.5" height="30" as="geometry" />
        </mxCell>
        <mxCell id="WuasNJQeEEEQrb4oNhzZ-13" value="Collection: &lt;font color=&quot;#ea6b66&quot;&gt;central_communication_request&lt;/font&gt;&lt;br&gt;Operation: &lt;font color=&quot;#ea6b66&quot;&gt;Write&lt;/font&gt;&lt;span style=&quot;caret-color: rgba(0, 0, 0, 0); color: rgba(0, 0, 0, 0); font-family: monospace; font-size: 0px;&quot;&gt;%3CmxGraphModel%3E%3Croot%3E%3CmxCell%20id%3D%220%22%2F%3E%3CmxCell%20id%3D%221%22%20parent%3D%220%22%2F%3E%3CmxCell%20id%3D%222%22%20value%3D%22%22%20style%3D%22endArrow%3Dclassic%3Bhtml%3D1%3Brounded%3D0%3BfontColor%3D%23000000%3BentryX%3D0%3BentryY%3D0.5%3BentryDx%3D0%3BentryDy%3D0%3BentryPerimeter%3D0%3BexitX%3D1%3BexitY%3D0.5%3BexitDx%3D0%3BexitDy%3D0%3B%22%20edge%3D%221%22%20parent%3D%221%22%3E%3CmxGeometry%20width%3D%2250%22%20height%3D%2250%22%20relative%3D%221%22%20as%3D%22geometry%22%3E%3CmxPoint%20x%3D%22400%22%20y%3D%22320%22%20as%3D%22sourcePoint%22%2F%3E%3CmxPoint%20x%3D%22460%22%20y%3D%22320%22%20as%3D%22targetPoint%22%2F%3E%3C%2FmxGeometry%3E%3C%2FmxCell%3E%3C%2Froot%3E%3C%2FmxGraphModel%3E&lt;/span&gt;" style="text;html=1;strokeColor=none;fillColor=none;align=left;verticalAlign=middle;whiteSpace=wrap;rounded=0;fontColor=#000000;" parent="1" vertex="1">
          <mxGeometry x="414" y="362" width="250.5" height="30" as="geometry" />
        </mxCell>
        <mxCell id="WuasNJQeEEEQrb4oNhzZ-14" value="" style="endArrow=classic;html=1;rounded=0;fontColor=#000000;entryX=0;entryY=0.5;entryDx=0;entryDy=0;entryPerimeter=0;exitX=1;exitY=0.5;exitDx=0;exitDy=0;" parent="1" source="WuasNJQeEEEQrb4oNhzZ-5" target="WuasNJQeEEEQrb4oNhzZ-6" edge="1">
          <mxGeometry width="50" height="50" relative="1" as="geometry">
            <mxPoint x="360" y="240" as="sourcePoint" />
            <mxPoint x="410" y="190" as="targetPoint" />
          </mxGeometry>
        </mxCell>
        <mxCell id="WuasNJQeEEEQrb4oNhzZ-15" value="" style="endArrow=classic;html=1;rounded=0;fontColor=#000000;exitX=0;exitY=0.5;exitDx=0;exitDy=0;" parent="1" source="WuasNJQeEEEQrb4oNhzZ-5" edge="1">
          <mxGeometry width="50" height="50" relative="1" as="geometry">
            <mxPoint x="360" y="240" as="sourcePoint" />
            <mxPoint x="260" y="320" as="targetPoint" />
          </mxGeometry>
        </mxCell>
        <mxCell id="WuasNJQeEEEQrb4oNhzZ-16" value="" style="endArrow=classic;html=1;rounded=0;fontColor=#000000;exitX=0.5;exitY=1;exitDx=0;exitDy=0;" parent="1" source="WuasNJQeEEEQrb4oNhzZ-1" target="WuasNJQeEEEQrb4oNhzZ-2" edge="1">
          <mxGeometry width="50" height="50" relative="1" as="geometry">
            <mxPoint x="360" y="254" as="sourcePoint" />
            <mxPoint x="410" y="204" as="targetPoint" />
          </mxGeometry>
        </mxCell>
        <mxCell id="WuasNJQeEEEQrb4oNhzZ-17" value="Api endpoint: central/sms/send" style="text;html=1;strokeColor=none;fillColor=none;align=center;verticalAlign=middle;whiteSpace=wrap;rounded=0;fontColor=#000000;" parent="1" vertex="1">
          <mxGeometry x="270" y="34" width="210" height="30" as="geometry" />
        </mxCell>
        <mxCell id="WuasNJQeEEEQrb4oNhzZ-18" value="&lt;font style=&quot;font-size: 10px;&quot;&gt;Yes&lt;/font&gt;" style="text;html=1;align=center;verticalAlign=middle;resizable=0;points=[];autosize=1;strokeColor=none;fillColor=none;fontColor=#000000;" parent="1" vertex="1">
          <mxGeometry x="400" y="295" width="40" height="30" as="geometry" />
        </mxCell>
        <mxCell id="WuasNJQeEEEQrb4oNhzZ-19" value="&lt;font style=&quot;font-size: 10px;&quot;&gt;No&lt;/font&gt;" style="text;html=1;align=center;verticalAlign=middle;resizable=0;points=[];autosize=1;strokeColor=none;fillColor=none;fontColor=#000000;" parent="1" vertex="1">
          <mxGeometry x="270" y="295" width="40" height="30" as="geometry" />
        </mxCell>
        <mxCell id="WuasNJQeEEEQrb4oNhzZ-22" value="getSMSManager" style="rounded=0;whiteSpace=wrap;html=1;fillColor=#dae8fc;strokeColor=#6c8ebf;" parent="1" vertex="1">
          <mxGeometry x="310" y="432" width="100" height="50" as="geometry" />
        </mxCell>
        <mxCell id="WuasNJQeEEEQrb4oNhzZ-23" value="AIRTEL&lt;br&gt;GUPSHUP&lt;br&gt;KALEYRa" style="text;html=1;strokeColor=none;fillColor=none;align=center;verticalAlign=middle;whiteSpace=wrap;rounded=0;fontColor=#000000;" parent="1" vertex="1">
          <mxGeometry x="414" y="442" width="60" height="30" as="geometry" />
        </mxCell>
        <mxCell id="WuasNJQeEEEQrb4oNhzZ-26" value="" style="endArrow=classic;html=1;rounded=0;fontColor=#000000;exitX=0.5;exitY=1;exitDx=0;exitDy=0;" parent="1" edge="1">
          <mxGeometry width="50" height="50" relative="1" as="geometry">
            <mxPoint x="359.5" y="482" as="sourcePoint" />
            <mxPoint x="359.5" y="532" as="targetPoint" />
          </mxGeometry>
        </mxCell>
        <mxCell id="WuasNJQeEEEQrb4oNhzZ-39" value="" style="endArrow=classic;html=1;rounded=0;fontColor=#000000;entryX=0;entryY=0.5;entryDx=0;entryDy=0;entryPerimeter=0;exitX=1;exitY=0.5;exitDx=0;exitDy=0;" parent="1" edge="1">
          <mxGeometry width="50" height="50" relative="1" as="geometry">
            <mxPoint x="540" y="319.5" as="sourcePoint" />
            <mxPoint x="600" y="319.5" as="targetPoint" />
          </mxGeometry>
        </mxCell>
        <mxCell id="WuasNJQeEEEQrb4oNhzZ-40" value="" style="endArrow=classic;html=1;rounded=0;fontColor=#000000;exitX=0;exitY=0.5;exitDx=0;exitDy=0;" parent="1" edge="1">
          <mxGeometry width="50" height="50" relative="1" as="geometry">
            <mxPoint x="181" y="321.5" as="sourcePoint" />
            <mxPoint x="121" y="321.5" as="targetPoint" />
          </mxGeometry>
        </mxCell>
        <mxCell id="WuasNJQeEEEQrb4oNhzZ-55" value="" style="endArrow=none;dashed=1;html=1;rounded=0;fontSize=10;fontColor=#000000;" parent="1" edge="1">
          <mxGeometry width="50" height="50" relative="1" as="geometry">
            <mxPoint x="361" y="430" as="sourcePoint" />
            <mxPoint x="361" y="360" as="targetPoint" />
          </mxGeometry>
        </mxCell>
        <mxCell id="WuasNJQeEEEQrb4oNhzZ-57" value="&lt;font style=&quot;font-size: 11px;&quot;&gt;Save request with status COMPLETED&lt;/font&gt;" style="shape=cylinder3;whiteSpace=wrap;html=1;boundedLbl=1;backgroundOutline=1;size=15;fillColor=#d5e8d4;strokeColor=#82b366;" parent="1" vertex="1">
          <mxGeometry x="321.5" y="710" width="79" height="80" as="geometry" />
        </mxCell>
        <mxCell id="WuasNJQeEEEQrb4oNhzZ-58" value="Collection: &lt;font color=&quot;#ea6b66&quot;&gt;central_communication_request&lt;/font&gt;&lt;br&gt;Operation: &lt;font color=&quot;#ea6b66&quot;&gt;Write&lt;/font&gt;&lt;span style=&quot;caret-color: rgba(0, 0, 0, 0); color: rgba(0, 0, 0, 0); font-family: monospace; font-size: 0px;&quot;&gt;%3CmxGraphModel%3E%3Croot%3E%3CmxCell%20id%3D%220%22%2F%3E%3CmxCell%20id%3D%221%22%20parent%3D%220%22%2F%3E%3CmxCell%20id%3D%222%22%20value%3D%22%22%20style%3D%22endArrow%3Dclassic%3Bhtml%3D1%3Brounded%3D0%3BfontColor%3D%23000000%3BentryX%3D0%3BentryY%3D0.5%3BentryDx%3D0%3BentryDy%3D0%3BentryPerimeter%3D0%3BexitX%3D1%3BexitY%3D0.5%3BexitDx%3D0%3BexitDy%3D0%3B%22%20edge%3D%221%22%20parent%3D%221%22%3E%3CmxGeometry%20width%3D%2250%22%20height%3D%2250%22%20relative%3D%221%22%20as%3D%22geometry%22%3E%3CmxPoint%20x%3D%22400%22%20y%3D%22320%22%20as%3D%22sourcePoint%22%2F%3E%3CmxPoint%20x%3D%22460%22%20y%3D%22320%22%20as%3D%22targetPoint%22%2F%3E%3C%2FmxGeometry%3E%3C%2FmxCell%3E%3C%2Froot%3E%3C%2FmxGraphModel%3E&lt;/span&gt;" style="text;html=1;strokeColor=none;fillColor=none;align=left;verticalAlign=middle;whiteSpace=wrap;rounded=0;fontColor=#000000;" parent="1" vertex="1">
          <mxGeometry x="400.5" y="730" width="250.5" height="30" as="geometry" />
        </mxCell>
        <mxCell id="WuasNJQeEEEQrb4oNhzZ-60" value="End of process" style="rounded=1;whiteSpace=wrap;html=1;fillColor=#e1d5e7;strokeColor=#9673a6;" parent="1" vertex="1">
          <mxGeometry x="300" y="843" width="120" height="60" as="geometry" />
        </mxCell>
        <mxCell id="WuasNJQeEEEQrb4oNhzZ-61" value="" style="endArrow=classic;html=1;rounded=0;fontColor=#000000;exitX=0.5;exitY=1;exitDx=0;exitDy=0;" parent="1" edge="1">
          <mxGeometry width="50" height="50" relative="1" as="geometry">
            <mxPoint x="360.5" y="790" as="sourcePoint" />
            <mxPoint x="360.5" y="840" as="targetPoint" />
          </mxGeometry>
        </mxCell>
        <mxCell id="WuasNJQeEEEQrb4oNhzZ-72" value="" style="endArrow=classic;html=1;rounded=0;fontColor=#000000;exitX=0.5;exitY=1;exitDx=0;exitDy=0;" parent="1" edge="1">
          <mxGeometry width="50" height="50" relative="1" as="geometry">
            <mxPoint x="360" y="235" as="sourcePoint" />
            <mxPoint x="360" y="285" as="targetPoint" />
          </mxGeometry>
        </mxCell>
        <mxCell id="WuasNJQeEEEQrb4oNhzZ-73" value="&lt;font style=&quot;font-size: 8px;&quot;&gt;Async operation&lt;/font&gt;" style="text;html=1;strokeColor=none;fillColor=none;align=center;verticalAlign=middle;whiteSpace=wrap;rounded=0;" parent="1" vertex="1">
          <mxGeometry x="337.25" y="370" width="60" height="30" as="geometry" />
        </mxCell>
        <mxCell id="WuasNJQeEEEQrb4oNhzZ-78" value="&lt;font style=&quot;font-size: 10px;&quot;&gt;Sent SMS&lt;/font&gt;" style="shape=parallelogram;perimeter=parallelogramPerimeter;whiteSpace=wrap;html=1;fixedSize=1;fontSize=8;fillColor=#b1ddf0;strokeColor=#10739e;" parent="1" vertex="1">
          <mxGeometry x="319.5" y="533" width="80" height="20" as="geometry" />
        </mxCell>
        <mxCell id="WuasNJQeEEEQrb4oNhzZ-79" value="" style="endArrow=classic;html=1;rounded=0;fontColor=#000000;exitX=0.5;exitY=1;exitDx=0;exitDy=0;" parent="1" target="WuasNJQeEEEQrb4oNhzZ-57" edge="1">
          <mxGeometry width="50" height="50" relative="1" as="geometry">
            <mxPoint x="360.5" y="553" as="sourcePoint" />
            <mxPoint x="360" y="593" as="targetPoint" />
          </mxGeometry>
        </mxCell>
        <mxCell id="WuasNJQeEEEQrb4oNhzZ-80" value="" style="rounded=1;whiteSpace=wrap;html=1;fillColor=#e1d5e7;strokeColor=#9673a6;" parent="1" vertex="1">
          <mxGeometry x="539" y="823" width="69.5" height="30" as="geometry" />
        </mxCell>
        <mxCell id="WuasNJQeEEEQrb4oNhzZ-81" value="" style="rounded=0;whiteSpace=wrap;html=1;fillColor=#dae8fc;strokeColor=#6c8ebf;" parent="1" vertex="1">
          <mxGeometry x="539" y="883" width="70" height="30" as="geometry" />
        </mxCell>
        <mxCell id="WuasNJQeEEEQrb4oNhzZ-82" value="" style="shape=cylinder3;whiteSpace=wrap;html=1;boundedLbl=1;backgroundOutline=1;size=15;fillColor=#d5e8d4;strokeColor=#82b366;" parent="1" vertex="1">
          <mxGeometry x="546" y="933" width="59.5" height="46" as="geometry" />
        </mxCell>
        <mxCell id="WuasNJQeEEEQrb4oNhzZ-83" value="" style="rhombus;whiteSpace=wrap;html=1;fillColor=#ffe6cc;strokeColor=#d79b00;" parent="1" vertex="1">
          <mxGeometry x="543.5" y="993" width="60" height="60" as="geometry" />
        </mxCell>
        <mxCell id="WuasNJQeEEEQrb4oNhzZ-84" value="" style="endArrow=classic;html=1;rounded=0;fontColor=#000000;" parent="1" edge="1">
          <mxGeometry width="50" height="50" relative="1" as="geometry">
            <mxPoint x="609" y="836" as="sourcePoint" />
            <mxPoint x="659" y="836" as="targetPoint" />
          </mxGeometry>
        </mxCell>
        <mxCell id="WuasNJQeEEEQrb4oNhzZ-85" value="" style="endArrow=classic;html=1;rounded=0;fontColor=#000000;" parent="1" edge="1">
          <mxGeometry width="50" height="50" relative="1" as="geometry">
            <mxPoint x="608" y="896" as="sourcePoint" />
            <mxPoint x="658" y="896" as="targetPoint" />
          </mxGeometry>
        </mxCell>
        <mxCell id="WuasNJQeEEEQrb4oNhzZ-86" value="" style="endArrow=classic;html=1;rounded=0;fontColor=#000000;" parent="1" edge="1">
          <mxGeometry width="50" height="50" relative="1" as="geometry">
            <mxPoint x="606.5" y="956" as="sourcePoint" />
            <mxPoint x="656.5" y="956" as="targetPoint" />
          </mxGeometry>
        </mxCell>
        <mxCell id="WuasNJQeEEEQrb4oNhzZ-87" value="" style="endArrow=classic;html=1;rounded=0;fontColor=#000000;" parent="1" edge="1">
          <mxGeometry width="50" height="50" relative="1" as="geometry">
            <mxPoint x="603.5" y="1024" as="sourcePoint" />
            <mxPoint x="653.5" y="1024" as="targetPoint" />
          </mxGeometry>
        </mxCell>
        <mxCell id="WuasNJQeEEEQrb4oNhzZ-88" value="Service &amp;nbsp;Entry/Exit" style="text;html=1;strokeColor=none;fillColor=none;align=center;verticalAlign=middle;whiteSpace=wrap;rounded=0;fontSize=10;" parent="1" vertex="1">
          <mxGeometry x="657" y="820" width="90" height="30" as="geometry" />
        </mxCell>
        <mxCell id="WuasNJQeEEEQrb4oNhzZ-89" value="Function&amp;nbsp;processing" style="text;html=1;strokeColor=none;fillColor=none;align=center;verticalAlign=middle;whiteSpace=wrap;rounded=0;fontSize=10;" parent="1" vertex="1">
          <mxGeometry x="639" y="880" width="134" height="30" as="geometry" />
        </mxCell>
        <mxCell id="WuasNJQeEEEQrb4oNhzZ-90" value="Database operation" style="text;html=1;strokeColor=none;fillColor=none;align=center;verticalAlign=middle;whiteSpace=wrap;rounded=0;fontSize=10;" parent="1" vertex="1">
          <mxGeometry x="636" y="941" width="134" height="30" as="geometry" />
        </mxCell>
        <mxCell id="WuasNJQeEEEQrb4oNhzZ-93" value="Decision&amp;nbsp;&lt;span style=&quot;caret-color: rgba(0, 0, 0, 0); color: rgba(0, 0, 0, 0); font-family: monospace; font-size: 0px; text-align: start;&quot;&gt;CmxGraphModel%3E%3Croot%3E%3CmxCell%20id%3D%220%22%2F%3E%3CmxCell%20id%3D%221%22%20parent%3D%220%22%2F%3E%3CmxCell%20id%3D%222%22%20value%3D%22Database%20operation%22%20style%3D%22text%3Bhtml%3D1%3BstrokeColor%3Dnone%3BfillColor%3Dnone%3Balign%3Dcenter%3BverticalAlign%3Dmiddle%3BwhiteSpace%3Dwrap%3Brounded%3D0%3BfontSize%3D10%3B%22%20vertex%3D%221%22%20parent%3D%221%22%3E%3CmxGeometry%20x%3D%22698%22%20y%3D%221738%22%20width%3D%22134%22%20height%3D%2230%22%20as%3D%22geometry%22%2F%3E%3C%2FmxCell%3E%3C%2Froot%3E%3C%2FmxGraphModel%3E &amp;nbsp;&lt;/span&gt;Making" style="text;html=1;strokeColor=none;fillColor=none;align=center;verticalAlign=middle;whiteSpace=wrap;rounded=0;fontSize=10;" parent="1" vertex="1">
          <mxGeometry x="627" y="1008" width="134" height="30" as="geometry" />
        </mxCell>
        <mxCell id="WuasNJQeEEEQrb4oNhzZ-95" value="success" style="rhombus;whiteSpace=wrap;html=1;fillColor=#ffe6cc;strokeColor=#d79b00;" parent="1" vertex="1">
          <mxGeometry x="321" y="590" width="80" height="80" as="geometry" />
        </mxCell>
        <mxCell id="WuasNJQeEEEQrb4oNhzZ-96" value="&lt;font style=&quot;font-size: 10px;&quot;&gt;Yes&lt;/font&gt;" style="text;html=1;align=center;verticalAlign=middle;resizable=0;points=[];autosize=1;strokeColor=none;fillColor=none;fontColor=#000000;" parent="1" vertex="1">
          <mxGeometry x="355" y="668" width="40" height="30" as="geometry" />
        </mxCell>
        <mxCell id="WuasNJQeEEEQrb4oNhzZ-97" value="" style="endArrow=classic;html=1;rounded=0;fontColor=#000000;exitX=1;exitY=0.5;exitDx=0;exitDy=0;" parent="1" edge="1">
          <mxGeometry width="50" height="50" relative="1" as="geometry">
            <mxPoint x="401" y="629.5" as="sourcePoint" />
            <mxPoint x="360" y="500" as="targetPoint" />
            <Array as="points">
              <mxPoint x="600" y="630" />
              <mxPoint x="600" y="500" />
            </Array>
          </mxGeometry>
        </mxCell>
        <mxCell id="WuasNJQeEEEQrb4oNhzZ-98" value="&lt;font style=&quot;font-size: 10px;&quot;&gt;No&lt;/font&gt;" style="text;html=1;align=center;verticalAlign=middle;resizable=0;points=[];autosize=1;strokeColor=none;fillColor=none;fontColor=#000000;" parent="1" vertex="1">
          <mxGeometry x="420" y="607" width="40" height="30" as="geometry" />
        </mxCell>
        <mxCell id="WuasNJQeEEEQrb4oNhzZ-100" value="&lt;pre style=&quot;text-align: start; font-family: &amp;quot;JetBrains Mono&amp;quot;, monospace;&quot;&gt;fallBackProvider&lt;/pre&gt;" style="rounded=0;whiteSpace=wrap;html=1;fillColor=#dae8fc;strokeColor=#6c8ebf;" parent="1" vertex="1">
          <mxGeometry x="540" y="607" width="120" height="35" as="geometry" />
        </mxCell>
        <mxCell id="WuasNJQeEEEQrb4oNhzZ-101" value="Chose another available provider" style="text;html=1;strokeColor=none;fillColor=none;align=center;verticalAlign=middle;whiteSpace=wrap;rounded=0;labelBackgroundColor=none;fontSize=10;fontColor=#000000;" parent="1" vertex="1">
          <mxGeometry x="660" y="607" width="60" height="30" as="geometry" />
        </mxCell>
        <mxCell id="WuasNJQeEEEQrb4oNhzZ-102" value="&lt;font style=&quot;font-size: 11px;&quot;&gt;Provider available&lt;/font&gt;" style="rhombus;whiteSpace=wrap;html=1;fillColor=#ffe6cc;strokeColor=#d79b00;" parent="1" vertex="1">
          <mxGeometry x="559" y="460" width="80" height="80" as="geometry" />
        </mxCell>
        <mxCell id="WuasNJQeEEEQrb4oNhzZ-103" value="&lt;font style=&quot;font-size: 10px;&quot;&gt;No&lt;/font&gt;" style="text;html=1;align=center;verticalAlign=middle;resizable=0;points=[];autosize=1;strokeColor=none;fillColor=none;fontColor=#000000;" parent="1" vertex="1">
          <mxGeometry x="640" y="477" width="40" height="30" as="geometry" />
        </mxCell>
        <mxCell id="WuasNJQeEEEQrb4oNhzZ-104" value="" style="endArrow=classic;html=1;rounded=0;fontColor=#000000;entryX=0;entryY=0.5;entryDx=0;entryDy=0;exitX=1;exitY=0.5;exitDx=0;exitDy=0;" parent="1" edge="1" target="WuasNJQeEEEQrb4oNhzZ-105">
          <mxGeometry width="50" height="50" relative="1" as="geometry">
            <mxPoint x="639" y="499.5" as="sourcePoint" />
            <mxPoint x="699" y="499.5" as="targetPoint" />
          </mxGeometry>
        </mxCell>
        <mxCell id="WuasNJQeEEEQrb4oNhzZ-105" value="End of process" style="rounded=1;whiteSpace=wrap;html=1;fillColor=#e1d5e7;strokeColor=#9673a6;" parent="1" vertex="1">
          <mxGeometry x="840" y="470" width="120" height="60" as="geometry" />
        </mxCell>
        <mxCell id="WuasNJQeEEEQrb4oNhzZ-106" value="&lt;font style=&quot;font-size: 10px;&quot;&gt;Yes&lt;/font&gt;" style="text;html=1;align=center;verticalAlign=middle;resizable=0;points=[];autosize=1;strokeColor=none;fillColor=none;fontColor=#000000;" parent="1" vertex="1">
          <mxGeometry x="474" y="477" width="40" height="30" as="geometry" />
        </mxCell>
        <mxCell id="LungBWqriw0rB42Vax---1" value="Save request with status ABORTED" style="shape=cylinder3;whiteSpace=wrap;html=1;boundedLbl=1;backgroundOutline=1;size=15;fillColor=#d5e8d4;strokeColor=#82b366;" vertex="1" parent="1">
          <mxGeometry x="700" y="460" width="79" height="80" as="geometry" />
        </mxCell>
      </root>
    </mxGraphModel>
  </diagram>
</mxfile>
